<svg xmlns="http://www.w3.org/2000/svg" width="180" height="120" viewBox="0 0 180 120">
  <defs>
    <radialGradient id="glow-white">
      <stop offset="0" stop-color="#fff"/>
      <stop offset="0.28" stop-color="#fff" stop-opacity="0.95"/>
      <stop offset="1" stop-color="#fff" stop-opacity="0"/>
    </radialGradient>
    <radialGradient id="glow-cyan">
      <stop offset="0" stop-color="#fff"/>
      <stop offset="0.26" stop-color="#76e6ff" stop-opacity="0.9"/>
      <stop offset="1" stop-color="#57d8ff" stop-opacity="0"/>
    </radialGradient>
  </defs>

  <g fill="#fff">
    <circle cx="17" cy="20" r="1" opacity="0.8"/>
    <circle cx="61" cy="17" r="0.7" opacity="0.65"/>
    <circle cx="103" cy="27" r="1.1" opacity="0.9"/>
    <circle cx="151" cy="15" r="0.8" opacity="0.7"/>
    <circle cx="34" cy="72" r="0.75" opacity="0.7"/>
    <circle cx="83" cy="91" r="1" opacity="0.85"/>
    <circle cx="137" cy="76" r="0.65" opacity="0.65"/>
    <circle cx="168" cy="103" r="0.9" opacity="0.8"/>
  </g>

  <g>
    <circle cx="45" cy="42" r="8" fill="url(#glow-cyan)"/>
    <path d="M45 31l1.5 9.5L56 42l-9.5 1.5L45 53l-1.5-9.5L34 42l9.5-1.5z" fill="#fff"/>

    <circle cx="124" cy="53" r="6" fill="url(#glow-white)"/>
    <path d="M124 45l1.1 6.9 6.9 1.1-6.9 1.1L124 61l-1.1-6.9-6.9-1.1 6.9-1.1z" fill="#fff"/>

    <circle cx="97" cy="105" r="5" fill="url(#glow-cyan)"/>
    <path d="M97 98l0.9 6.1 6.1 0.9-6.1 0.9L97 112l-0.9-6.1-6.1-0.9 6.1-0.9z" fill="#fff"/>

    <circle cx="163" cy="39" r="4" fill="url(#glow-white)"/>
    <path d="M163 33.5l0.75 4.75 4.75 0.75-4.75 0.75L163 44.5l-0.75-4.75-4.75-0.75 4.75-0.75z" fill="#fff"/>
  </g>
</svg>
